<svg width="24" height="24" viewBox="0 0 24 24" fill="none" xmlns="http://www.w3.org/2000/svg">
<circle cx="12" cy="12" r="11" stroke="#2D2D2D" stroke-width="2"/>
<path d="M10.032 17.632V16.752L11.296 16.528V11.088L10 10.832V9.904L12.816 9.536L13.408 9.76V16.528L14.528 16.752V17.632H10.032ZM12.032 8.656C11.68 8.656 11.3867 8.53867 11.152 8.304C10.9173 8.05867 10.8 7.74933 10.8 7.376C10.8 7.01333 10.9333 6.69333 11.2 6.416C11.4667 6.13867 11.7867 6 12.16 6C12.512 6 12.8053 6.10667 13.04 6.32C13.2853 6.53333 13.408 6.84267 13.408 7.248C13.408 7.62133 13.28 7.952 13.024 8.24C12.7787 8.51733 12.448 8.656 12.032 8.656Z" fill="#2D2D2D"/>
</svg>
