<svg width="288" height="30" viewBox="0 0 288 30" fill="none" xmlns="http://www.w3.org/2000/svg">
<path fill-rule="evenodd" clip-rule="evenodd" d="M198.827 3.22988C199.457 3.84619 199.91 4.6132 200.143 5.45453C201.483 10.7313 201.173 19.0651 200.169 24.5454C199.936 25.3868 199.483 26.1538 198.853 26.7701C198.223 27.3864 197.439 27.8305 196.579 28.0582C193.431 28.8982 180.761 28.8982 180.761 28.8982C180.761 28.8982 168.091 28.8982 164.943 28.0582C164.083 27.8305 163.299 27.3864 162.669 26.7701C162.039 26.1538 161.586 25.3868 161.353 24.5454C160.005 19.2916 160.375 10.9527 161.327 5.47999C161.56 4.63865 162.013 3.87164 162.643 3.25533C163.273 2.63902 164.057 2.19492 164.917 1.96726C168.065 1.12726 180.735 1.10181 180.735 1.10181C180.735 1.10181 193.405 1.10181 196.553 1.94181C197.413 2.16947 198.197 2.61357 198.827 3.22988ZM187.213 15L176.702 20.9564V9.04362L187.213 15Z" fill="white"/>
<path d="M219.291 26.3782C218.485 25.8436 217.912 25.0291 217.574 23.9091C217.236 22.7891 217.08 21.3127 217.08 19.4545V16.9345C217.08 15.0763 217.262 13.5491 217.652 12.4291C218.042 11.2836 218.641 10.4691 219.473 9.95998C220.306 9.45089 221.372 9.17089 222.699 9.17089C224 9.17089 225.067 9.42543 225.847 9.95998C226.628 10.4945 227.226 11.3091 227.59 12.4291C227.954 13.5491 228.137 15.0509 228.137 16.9091V19.4291C228.137 21.2873 227.954 22.7636 227.59 23.8836C227.226 25.0036 226.654 25.8182 225.847 26.3527C225.041 26.8618 223.948 27.1418 222.595 27.1418C221.19 27.1673 220.098 26.8873 219.291 26.3782ZM223.792 23.6545C224.026 23.0945 224.13 22.1527 224.13 20.88V15.4582C224.13 14.2109 224.026 13.2945 223.792 12.7345C223.558 12.1491 223.167 11.8691 222.621 11.8691C222.075 11.8691 221.711 12.1491 221.476 12.7345C221.242 13.32 221.138 14.2109 221.138 15.4582V20.88C221.138 22.1527 221.242 23.0945 221.45 23.6545C221.659 24.2145 222.049 24.4945 222.621 24.4945C223.167 24.4945 223.558 24.2145 223.792 23.6545ZM280.819 19.5054V20.3963L280.924 22.9163C281.002 23.4763 281.132 23.8836 281.34 24.1382C281.548 24.3927 281.886 24.52 282.328 24.52C282.927 24.52 283.343 24.2909 283.551 23.8327C283.785 23.3745 283.889 22.6109 283.915 21.5673L287.376 21.7709C287.402 21.9236 287.402 22.1273 287.402 22.3818C287.402 23.9854 286.959 25.1818 286.049 25.9709C285.138 26.76 283.889 27.1673 282.25 27.1673C280.273 27.1673 278.894 26.5563 278.114 25.36C277.333 24.1636 276.917 22.28 276.917 19.76V16.68C277.006 12.3527 277.783 9.18361 282.354 9.17089C283.733 9.17089 284.774 9.42543 285.502 9.90907C286.231 10.3927 286.751 11.1563 287.063 12.2C287.376 13.2436 287.506 14.6691 287.506 16.5018V19.48H280.819V19.5054ZM281.34 12.1745C281.132 12.4291 281.002 12.8109 280.924 13.3709C280.846 13.9309 280.819 15.9163 280.819 15.9163V17.1636H283.733V15.9163C283.733 17.1636 283.707 13.9563 283.629 13.3709C283.551 12.7854 283.421 12.3782 283.213 12.1491C283.005 11.92 282.693 11.7927 282.276 11.7927C281.834 11.8182 281.522 11.9454 281.34 12.1745ZM209.561 19.1745L205.008 3.08725H208.989C208.989 3.08725 210.849 11.1563 211.486 14.9491H211.59C212.313 10.9222 214.14 3.08725 214.14 3.08725H218.12L213.515 19.1491V26.8618H209.587V19.1745H209.561Z" fill="white"/>
<path d="M241.041 9.5018V26.8872H237.919L237.58 24.7491H237.502C236.644 26.3527 235.369 27.1673 233.678 27.1673C230.616 27.1596 230.275 24.6218 230.244 22.4836V9.5018H234.25V22.2545C234.25 23.0182 234.328 23.5782 234.511 23.9091C234.88 24.6167 235.837 24.436 236.358 24.0873C236.658 23.8886 236.9 23.6166 237.06 23.2982V9.5018H241.041Z" fill="white"/>
<path d="M262.114 9.5018V26.8872H258.992L258.654 24.7491H258.576C257.717 26.3527 256.442 27.1673 254.751 27.1673C251.689 27.1596 251.348 24.6218 251.317 22.4836V9.5018H255.324V22.2545C255.324 23.0182 255.402 23.5782 255.584 23.9091C255.953 24.6167 256.911 24.436 257.431 24.0873C257.731 23.8886 257.973 23.6166 258.133 23.2982V9.5018H262.114Z" fill="white"/>
<path d="M251.915 6.24362H247.935V26.8873H244.033V6.24362H240.052V3.08726H251.889V6.24362H251.915ZM274.784 12.2764C274.55 11.1818 274.159 10.3927 273.613 9.88362C273.067 9.39999 272.338 9.14544 271.376 9.14544C270.644 9.14387 269.928 9.35663 269.32 9.75635C268.67 10.1636 268.202 10.6982 267.837 11.36H267.811V2.19635H263.961V26.8618H267.265L267.681 25.2073H267.759C268.077 25.79 268.555 26.2747 269.138 26.6073C269.763 26.9382 270.439 27.1164 271.193 27.1164C272.546 27.1164 273.535 26.5054 274.185 25.2836C274.81 24.0618 275.148 22.1527 275.148 19.5818V16.8327C275.148 14.8982 275.018 13.3709 274.784 12.2764ZM271.115 19.3782C271.115 20.6509 271.063 21.6436 270.959 22.3564C270.855 23.0691 270.673 23.5782 270.413 23.8836C270.153 24.1891 269.815 24.3418 269.398 24.3418C268.592 24.3164 268.134 23.96 267.811 23.4254V13.5491C267.941 13.0654 268.176 12.6836 268.514 12.3782C269.086 11.7494 270.064 11.7418 270.517 12.3782C270.751 12.6836 270.881 13.2182 270.985 13.9564C271.063 14.6945 271.115 15.7382 271.115 17.1127V19.3782Z" fill="white"/>
<path d="M5.46515 0C2.42896 0 0 2.39268 0 5.39057C0 8.33216 2.44276 10.7671 5.39615 10.7671C8.34953 10.7671 10.7785 8.34624 10.7785 5.39057C10.7785 2.44898 8.34953 0 5.46515 0ZM5.34094 0.957073C7.7837 0.957073 9.74342 2.94159 9.74342 5.40464C9.74342 7.8114 7.7699 9.80999 5.39615 9.80999C3.00859 9.80999 1.03507 7.8114 1.03507 5.39057C1.03507 2.99789 3.00859 0.957073 5.34094 0.957073Z" fill="white"/>
<path d="M16.287 0.18297V2.7164C13.2094 2.85714 11.9397 4.29275 11.9397 6.74173C11.9397 9.19071 13.2094 10.6122 16.287 10.753V13.2864H17.3082V10.753C20.3858 10.6122 21.6555 9.19071 21.6555 6.74173C21.6555 4.29275 20.3858 2.85714 17.3082 2.7164V0.18297H16.287ZM16.287 3.67347V9.79592C13.8994 9.66925 12.9748 8.6418 12.9748 6.74173C12.9748 4.84166 13.8994 3.80014 16.287 3.67347ZM17.3082 9.79592V3.67347C19.6958 3.80014 20.6205 4.84166 20.6205 6.74173C20.6205 8.6418 19.6958 9.66925 17.3082 9.79592Z" fill="white"/>
<path d="M28.6965 2.88529L24.1008 9.10626V2.88529H23.0795V10.5841H24.1008L28.6965 4.36312V10.5841H29.7177V2.88529H28.6965Z" fill="white"/>
<path d="M37.8247 2.88529H36.8034V9.6411H32.4837V2.88529H31.4625V10.5841H37.9765L38.3491 12.3575H39.0529V9.6411H37.8247V2.88529Z" fill="white"/>
<path d="M45.6645 2.88529L41.0688 9.10626V2.88529H40.0476V10.5841H41.0688L45.6645 4.36312V10.5841H46.6858V2.88529H45.6645Z" fill="white"/>
<path d="M56.1176 2.88529H55.0964V4.25053C54.3373 3.16678 53.4264 2.70232 52.1154 2.70232C49.852 2.70232 48.1407 4.44757 48.1407 6.75581C48.1407 9.06404 49.8658 10.7671 52.1982 10.7671C53.4817 10.7671 54.2959 10.3308 55.0964 9.23293V10.5841H56.1176V2.88529ZM52.1016 3.6594C53.8129 3.6594 55.0964 4.96833 55.0964 6.71358C55.0964 8.45883 53.8267 9.80999 52.1844 9.80999C50.5145 9.80999 49.1758 8.44476 49.1758 6.71358C49.1758 5.02463 50.4869 3.6594 52.1016 3.6594Z" fill="white"/>
<path d="M64.6827 10.5841L61.4395 2.88529H60.294L57.0508 10.5841H58.1273L60.8736 4.06756L63.6062 10.5841H64.6827Z" fill="white"/>
<path d="M66.649 6.91063H68.6087C69.8508 6.91063 70.4304 7.38916 70.4304 8.27586C70.4304 9.16256 69.8508 9.6411 68.6087 9.6411H66.649V6.91063ZM68.8709 5.96763H66.649V2.88529H65.6277V10.5841H68.8709C70.458 10.5841 71.4655 9.59888 71.4655 8.27586C71.4655 6.95285 70.458 5.96763 68.8709 5.96763Z" fill="white"/>
<path d="M79.2187 10.5841V2.88529H78.1974V6.19282H73.6707V2.88529H72.6495V10.5841H73.6707V7.13582H78.1974V10.5841H79.2187Z" fill="white"/>
<path d="M81.9728 6.91063H83.7945C85.0366 6.91063 85.6162 7.38916 85.6162 8.27586C85.6162 9.16256 85.0366 9.6411 83.7945 9.6411H81.9728V6.91063ZM84.0568 5.96763H81.9728V2.88529H80.9516V10.5841H84.0568C85.6439 10.5841 86.6513 9.59888 86.6513 8.27586C86.6513 6.95285 85.6439 5.96763 84.0568 5.96763ZM88.5834 2.88529H87.5622V10.5841H88.5834V2.88529Z" fill="white"/>
<path d="M91.5328 0.0844473C91.7399 1.35116 92.5265 1.91414 93.6306 1.91414C94.7346 1.91414 95.5213 1.35116 95.7283 0.0844473H94.707C94.707 0.900774 94.3068 1.26671 93.6306 1.26671C92.9543 1.26671 92.5541 0.900774 92.5541 0.0844473H91.5328ZM95.9353 2.88529L91.3396 9.10626V2.88529H90.3184V10.5841H91.3396L95.9353 4.36312V10.5841H96.9566V2.88529H95.9353Z" fill="white"/>
<path d="M102.529 2.88529V10.5841H103.55V6.95285L106.987 10.5841H108.325L104.558 6.61506L108.325 2.88529H107L103.55 6.31949V2.88529H102.529Z" fill="white"/>
<path d="M116.712 2.88529H115.691V4.25053C114.932 3.16678 114.021 2.70232 112.71 2.70232C110.447 2.70232 108.735 4.44757 108.735 6.75581C108.735 9.06404 110.46 10.7671 112.793 10.7671C114.076 10.7671 114.89 10.3308 115.691 9.23293V10.5841H116.712V2.88529ZM112.696 3.6594C114.407 3.6594 115.691 4.96833 115.691 6.71358C115.691 8.45883 114.421 9.80999 112.779 9.80999C111.109 9.80999 109.77 8.44476 109.77 6.71358C109.77 5.02463 111.081 3.6594 112.696 3.6594Z" fill="white"/>
<path d="M125.015 10.5841V2.88529H123.994V6.19282H119.467V2.88529H118.446V10.5841H119.467V7.13582H123.994V10.5841H125.015Z" fill="white"/>
<path d="M134.435 2.88529H133.414V4.25053C132.655 3.16678 131.744 2.70232 130.433 2.70232C128.169 2.70232 126.458 4.44757 126.458 6.75581C126.458 9.06404 128.183 10.7671 130.515 10.7671C131.799 10.7671 132.613 10.3308 133.414 9.23293V10.5841H134.435V2.88529ZM130.419 3.6594C132.13 3.6594 133.414 4.96833 133.414 6.71358C133.414 8.45883 132.144 9.80999 130.502 9.80999C128.832 9.80999 127.493 8.44476 127.493 6.71358C127.493 5.02463 128.804 3.6594 130.419 3.6594Z" fill="white"/>
<path d="M143 10.5841L139.757 2.88529H138.611L135.368 10.5841H136.445L139.191 4.06756L141.924 10.5841H143Z" fill="white"/>
<path d="M28.9578 25.9043L29.7721 25.4398L28.4748 23.0753L29.7721 20.7248L28.9578 20.2745L27.3983 23.0753L28.9578 25.9043ZM31.3454 25.9043L32.1596 25.4398L30.8623 23.0753L32.1596 20.7248L31.3454 20.2745L29.7583 23.0753L31.3454 25.9043Z" fill="white"/>
<path d="M35.0965 26.3547L38.5605 18.0788L42.0246 26.3547H35.0965ZM44.1637 26.3547H43.1148L39.1402 16.8966H37.9809L34.0062 26.3547H32.9574V29.2118H33.675L34.0614 27.2977H43.0596L43.446 29.2118H44.1637V26.3547Z" fill="white"/>
<path d="M45.6226 30H46.7129L51.0739 19.5989H49.9837L47.4305 25.7354L45.043 19.5989H43.9251L46.8509 27.0443L45.6226 30Z" fill="white"/>
<path d="M51.3104 27.2977H52.4697L54.5122 24.2153L56.5409 27.2977H57.714L55.078 23.3709L57.714 19.5989H56.5409L54.5122 22.5686L52.4697 19.5989H51.3104L53.9326 23.3709L51.3104 27.2977Z" fill="white"/>
<path d="M62.1702 19.4159C59.8516 19.4159 58.1679 21.1189 58.1679 23.4553C58.1679 25.7635 59.893 27.4806 62.1978 27.4806C64.4197 27.4806 66.0482 25.7776 66.0482 23.4694C66.0482 21.1471 64.3921 19.4159 62.1702 19.4159ZM62.0874 20.373C63.7987 20.373 65.0132 21.6678 65.0132 23.4835C65.0132 25.2569 63.8263 26.5236 62.1702 26.5236C60.4589 26.5236 59.203 25.2287 59.203 23.4694C59.203 21.696 60.4313 20.373 62.0874 20.373Z" fill="white"/>
<path d="M68.5223 23.7227H70.4683C71.6 23.7227 72.4832 24.0183 72.4832 25.0035C72.4832 25.9887 71.6 26.3547 70.4683 26.3547H68.5223V23.7227ZM73.1318 21.6256C73.1318 20.3308 72.1244 19.5989 70.5235 19.5989H67.5011V27.2977H70.7305C72.3866 27.2977 73.5183 26.3125 73.5183 25.0035C73.5183 24.1872 73.0904 23.5257 72.1106 23.1597C72.497 22.9909 73.1318 22.456 73.1318 21.6256ZM72.152 21.6256C72.152 22.4279 71.4067 22.7797 70.3579 22.7797H68.5223V20.5419H70.3579C71.4067 20.5419 72.152 20.8234 72.152 21.6256Z" fill="white"/>
<path d="M81.4559 27.2977V19.5989H80.4347V22.9064H75.908V19.5989H74.8867V27.2977H75.908V23.8494H80.4347V27.2977H81.4559Z" fill="white"/>
<path d="M84.2101 23.6242H86.0318C87.2739 23.6242 87.8535 24.1027 87.8535 24.9894C87.8535 25.8761 87.2739 26.3547 86.0318 26.3547H84.2101V23.6242ZM86.294 22.6812H84.2101V19.5989H83.1888V27.2977H86.294C87.8811 27.2977 88.8886 26.3125 88.8886 24.9894C88.8886 23.6664 87.8811 22.6812 86.294 22.6812ZM90.8207 19.5989H89.7994V27.2977H90.8207V19.5989Z" fill="white"/>
<path d="M93.7701 16.798C93.9771 18.0647 94.7638 18.6277 95.8678 18.6277C96.9719 18.6277 97.7585 18.0647 97.9656 16.798H96.9443C96.9443 17.6144 96.5441 17.9803 95.8678 17.9803C95.1916 17.9803 94.7914 17.6144 94.7914 16.798H93.7701ZM98.1726 19.5989L93.5769 25.8198V19.5989H92.5556V27.2977H93.5769L98.1726 21.0767V27.2977H99.1938V19.5989H98.1726Z" fill="white"/>
<path d="M104.766 27.2977H105.787V20.7389L108.548 27.2977H109.431L112.191 20.7389V27.2977H113.212V19.5989H111.625L108.989 25.848L106.353 19.5989H104.766V27.2977Z" fill="white"/>
<path d="M122.642 19.5989H121.621V20.9641C120.862 19.8804 119.951 19.4159 118.64 19.4159C116.377 19.4159 114.665 21.1612 114.665 23.4694C114.665 25.7776 116.39 27.4806 118.723 27.4806C120.006 27.4806 120.82 27.0443 121.621 25.9465V27.2977H122.642V19.5989ZM118.626 20.373C120.337 20.373 121.621 21.6819 121.621 23.4272C121.621 25.1724 120.351 26.5236 118.709 26.5236C117.039 26.5236 115.7 25.1583 115.7 23.4272C115.7 21.7382 117.011 20.373 118.626 20.373Z" fill="white"/>
<path d="M128.585 23.2442H126.832C125.59 23.2442 125.011 22.7657 125.011 21.893C125.011 21.0204 125.59 20.5419 126.832 20.5419H128.585V23.2442ZM126.915 24.1872H128.585V27.2977H129.606V19.5989H126.57C124.983 19.5989 123.976 20.5841 123.976 21.893C123.976 22.9768 124.666 23.8353 125.811 24.1027L123.631 27.2977H124.79L126.915 24.1872Z" fill="white"/>
<path d="M131.344 19.5989V27.2977H132.365V23.6664L135.801 27.2977H137.14L133.372 23.3286L137.14 19.5989H135.815L132.365 23.0331V19.5989H131.344Z" fill="white"/>
<path d="M140.967 25.9043L142.526 23.0753L140.967 20.2745L140.152 20.7248L141.45 23.0753L140.152 25.4398L140.967 25.9043ZM138.579 25.9043L140.166 23.0753L138.579 20.2745L137.765 20.7248L139.062 23.0753L137.765 25.4398L138.579 25.9043Z" fill="white"/>
</svg>
