<svg width="143" height="67" viewBox="0 0 143 67" fill="none" xmlns="http://www.w3.org/2000/svg">
<path fill-rule="evenodd" clip-rule="evenodd" d="M45.8266 41.2299C46.4565 41.8462 46.9104 42.6132 47.1431 43.4545C48.4829 48.7313 48.1733 57.0651 47.1691 62.5455C46.9364 63.3868 46.4825 64.1538 45.8526 64.7701C45.2227 65.3864 44.4388 65.8305 43.5789 66.0582C40.4309 66.8982 27.761 66.8982 27.761 66.8982C27.761 66.8982 15.0911 66.8982 11.9431 66.0582C11.0832 65.8305 10.2993 65.3864 9.66935 64.7701C9.03944 64.1538 8.58554 63.3868 8.35285 62.5455C7.00521 57.2916 7.37464 48.9527 8.32684 43.48C8.55952 42.6387 9.01342 41.8717 9.64333 41.2553C10.2732 40.639 11.0572 40.1949 11.9171 39.9673C15.065 39.1273 27.735 39.1018 27.735 39.1018C27.735 39.1018 40.4049 39.1018 43.5529 39.9418C44.4128 40.1695 45.1967 40.6136 45.8266 41.2299ZM34.213 53L23.7024 58.9564V47.0436L34.213 53Z" fill="white"/>
<path d="M66.2911 64.3782C65.4846 63.8436 64.9122 63.0291 64.574 61.9091C64.2358 60.7891 64.0797 59.3127 64.0797 57.4546V54.9346C64.0797 53.0764 64.2618 51.5491 64.6521 50.4291C65.0423 49.2836 65.6407 48.4691 66.4732 47.96C67.3057 47.4509 68.3724 47.1709 69.6992 47.1709C71 47.1709 72.0667 47.4255 72.8472 47.96C73.6277 48.4946 74.2261 49.3091 74.5903 50.4291C74.9545 51.5491 75.1366 53.0509 75.1366 54.9091V57.4291C75.1366 59.2873 74.9545 60.7636 74.5903 61.8836C74.2261 63.0037 73.6537 63.8182 72.8472 64.3527C72.0407 64.8618 70.948 65.1418 69.5952 65.1418C68.1903 65.1673 67.0976 64.8873 66.2911 64.3782ZM70.7919 61.6546C71.0261 61.0946 71.1301 60.1527 71.1301 58.88V53.4582C71.1301 52.2109 71.0261 51.2946 70.7919 50.7346C70.5578 50.1491 70.1675 49.8691 69.6212 49.8691C69.0748 49.8691 68.7106 50.1491 68.4765 50.7346C68.2423 51.32 68.1383 52.2109 68.1383 53.4582V58.88C68.1383 60.1527 68.2423 61.0946 68.4505 61.6546C68.6586 62.2146 69.0488 62.4946 69.6212 62.4946C70.1675 62.4946 70.5578 62.2146 70.7919 61.6546ZM127.82 57.5055V58.3964L127.924 60.9164C128.002 61.4764 128.132 61.8836 128.34 62.1382C128.548 62.3927 128.886 62.52 129.329 62.52C129.927 62.52 130.343 62.2909 130.551 61.8327C130.785 61.3746 130.889 60.6109 130.915 59.5673L134.376 59.7709C134.402 59.9236 134.402 60.1273 134.402 60.3818C134.402 61.9855 133.959 63.1818 133.049 63.9709C132.138 64.76 130.889 65.1673 129.25 65.1673C127.273 65.1673 125.894 64.5564 125.114 63.36C124.333 62.1636 123.917 60.28 123.917 57.76V54.68C124.006 50.3527 124.783 47.1836 129.355 47.1709C130.733 47.1709 131.774 47.4255 132.502 47.9091C133.231 48.3927 133.751 49.1564 134.063 50.2C134.376 51.2436 134.506 52.6691 134.506 54.5018V57.48H127.82V57.5055ZM128.34 50.1746C128.132 50.4291 128.002 50.8109 127.924 51.3709C127.846 51.9309 127.82 53.9164 127.82 53.9164V55.1636H130.733V53.9164C130.733 55.1636 130.707 51.9564 130.629 51.3709C130.551 50.7855 130.421 50.3782 130.213 50.1491C130.005 49.92 129.693 49.7927 129.276 49.7927C128.834 49.8182 128.522 49.9455 128.34 50.1746ZM56.561 57.1746L52.0082 41.0873H55.9887C55.9887 41.0873 57.8488 49.1564 58.4862 52.9491H58.5903C59.3135 48.9222 61.1399 41.0873 61.1399 41.0873H65.1204L60.5155 57.1491V64.8618H56.587V57.1746H56.561Z" fill="white"/>
<path d="M88.0406 47.5018V64.8873H84.9187L84.5805 62.7491H84.5024C83.6439 64.3527 82.3691 65.1673 80.678 65.1673C77.6159 65.1596 77.2751 62.6218 77.2439 60.4836V47.5018H81.2504V60.2545C81.2504 61.0182 81.3284 61.5782 81.5106 61.9091C81.88 62.6167 82.8374 62.436 83.3577 62.0873C83.6581 61.8886 83.9003 61.6166 84.0602 61.2982V47.5018H88.0406Z" fill="white"/>
<path d="M109.114 47.5018V64.8873H105.992L105.654 62.7491H105.576C104.717 64.3527 103.442 65.1673 101.751 65.1673C98.6892 65.1596 98.3484 62.6218 98.3171 60.4836V47.5018H102.324V60.2545C102.324 61.0182 102.402 61.5782 102.584 61.9091C102.953 62.6167 103.911 62.436 104.431 62.0873C104.731 61.8886 104.974 61.6166 105.133 61.2982V47.5018H109.114Z" fill="white"/>
<path d="M98.9155 44.2436H94.935V64.8873H91.0326V44.2436H87.0521V41.0873H98.8895V44.2436H98.9155ZM121.784 50.2764C121.55 49.1818 121.159 48.3927 120.613 47.8836C120.067 47.4 119.338 47.1455 118.376 47.1455C117.644 47.1439 116.928 47.3566 116.32 47.7564C115.67 48.1636 115.202 48.6982 114.837 49.36H114.811V40.1964H110.961V64.8618H114.265L114.681 63.2073H114.759C115.078 63.79 115.555 64.2747 116.138 64.6073C116.763 64.9382 117.439 65.1164 118.194 65.1164C119.546 65.1164 120.535 64.5055 121.185 63.2836C121.81 62.0618 122.148 60.1527 122.148 57.5818V54.8327C122.148 52.8982 122.018 51.3709 121.784 50.2764ZM118.116 57.3782C118.116 58.6509 118.064 59.6436 117.959 60.3564C117.855 61.0691 117.673 61.5782 117.413 61.8836C117.153 62.1891 116.815 62.3418 116.398 62.3418C115.592 62.3164 115.134 61.96 114.811 61.4255V51.5491C114.942 51.0655 115.176 50.6836 115.514 50.3782C116.086 49.7495 117.064 49.7418 117.517 50.3782C117.751 50.6836 117.881 51.2182 117.985 51.9564C118.064 52.6945 118.116 53.7382 118.116 55.1127V57.3782Z" fill="white"/>
<path d="M5.46515 0C2.42896 0 0 2.39268 0 5.39057C0 8.33216 2.44276 10.7671 5.39615 10.7671C8.34953 10.7671 10.7785 8.34624 10.7785 5.39057C10.7785 2.44898 8.34953 0 5.46515 0ZM5.34094 0.957073C7.7837 0.957073 9.74342 2.94159 9.74342 5.40464C9.74342 7.8114 7.7699 9.80999 5.39615 9.80999C3.00859 9.80999 1.03507 7.8114 1.03507 5.39057C1.03507 2.99789 3.00859 0.957073 5.34094 0.957073Z" fill="white"/>
<path d="M16.287 0.18297V2.7164C13.2094 2.85714 11.9397 4.29275 11.9397 6.74173C11.9397 9.19071 13.2094 10.6122 16.287 10.753V13.2864H17.3082V10.753C20.3858 10.6122 21.6555 9.19071 21.6555 6.74173C21.6555 4.29275 20.3858 2.85714 17.3082 2.7164V0.18297H16.287ZM16.287 3.67347V9.79592C13.8994 9.66925 12.9748 8.6418 12.9748 6.74173C12.9748 4.84166 13.8994 3.80014 16.287 3.67347ZM17.3082 9.79592V3.67347C19.6958 3.80014 20.6205 4.84166 20.6205 6.74173C20.6205 8.6418 19.6958 9.66925 17.3082 9.79592Z" fill="white"/>
<path d="M28.6965 2.88529L24.1008 9.10626V2.88529H23.0795V10.5841H24.1008L28.6965 4.36312V10.5841H29.7177V2.88529H28.6965Z" fill="white"/>
<path d="M37.8247 2.88529H36.8034V9.6411H32.4837V2.88529H31.4625V10.5841H37.9765L38.3491 12.3575H39.0529V9.6411H37.8247V2.88529Z" fill="white"/>
<path d="M45.6645 2.88529L41.0688 9.10626V2.88529H40.0476V10.5841H41.0688L45.6645 4.36312V10.5841H46.6858V2.88529H45.6645Z" fill="white"/>
<path d="M56.1176 2.88529H55.0964V4.25053C54.3373 3.16678 53.4265 2.70232 52.1154 2.70232C49.852 2.70232 48.1407 4.44757 48.1407 6.75581C48.1407 9.06404 49.8658 10.7671 52.1982 10.7671C53.4817 10.7671 54.2959 10.3308 55.0964 9.23293V10.5841H56.1176V2.88529ZM52.1016 3.6594C53.8129 3.6594 55.0964 4.96833 55.0964 6.71358C55.0964 8.45883 53.8267 9.80999 52.1844 9.80999C50.5145 9.80999 49.1758 8.44476 49.1758 6.71358C49.1758 5.02463 50.4869 3.6594 52.1016 3.6594Z" fill="white"/>
<path d="M64.6827 10.5841L61.4395 2.88529H60.294L57.0508 10.5841H58.1273L60.8736 4.06756L63.6062 10.5841H64.6827Z" fill="white"/>
<path d="M66.649 6.91063H68.6087C69.8508 6.91063 70.4304 7.38916 70.4304 8.27586C70.4304 9.16256 69.8508 9.6411 68.6087 9.6411H66.649V6.91063ZM68.8709 5.96763H66.649V2.88529H65.6277V10.5841H68.8709C70.458 10.5841 71.4655 9.59888 71.4655 8.27586C71.4655 6.95285 70.458 5.96763 68.8709 5.96763Z" fill="white"/>
<path d="M79.2187 10.5841V2.88529H78.1974V6.19282H73.6707V2.88529H72.6495V10.5841H73.6707V7.13582H78.1974V10.5841H79.2187Z" fill="white"/>
<path d="M81.9728 6.91063H83.7945C85.0366 6.91063 85.6162 7.38916 85.6162 8.27586C85.6162 9.16256 85.0366 9.6411 83.7945 9.6411H81.9728V6.91063ZM84.0568 5.96763H81.9728V2.88529H80.9516V10.5841H84.0568C85.6439 10.5841 86.6513 9.59888 86.6513 8.27586C86.6513 6.95285 85.6439 5.96763 84.0568 5.96763ZM88.5834 2.88529H87.5622V10.5841H88.5834V2.88529Z" fill="white"/>
<path d="M91.5328 0.0844473C91.7399 1.35116 92.5265 1.91414 93.6306 1.91414C94.7346 1.91414 95.5213 1.35116 95.7283 0.0844473H94.707C94.707 0.900774 94.3068 1.26671 93.6306 1.26671C92.9543 1.26671 92.5541 0.900774 92.5541 0.0844473H91.5328ZM95.9353 2.88529L91.3396 9.10626V2.88529H90.3184V10.5841H91.3396L95.9353 4.36312V10.5841H96.9566V2.88529H95.9353Z" fill="white"/>
<path d="M102.529 2.88529V10.5841H103.55V6.95285L106.987 10.5841H108.325L104.558 6.61506L108.325 2.88529H107L103.55 6.31949V2.88529H102.529Z" fill="white"/>
<path d="M116.712 2.88529H115.691V4.25053C114.932 3.16678 114.021 2.70232 112.71 2.70232C110.447 2.70232 108.735 4.44757 108.735 6.75581C108.735 9.06404 110.46 10.7671 112.793 10.7671C114.076 10.7671 114.89 10.3308 115.691 9.23293V10.5841H116.712V2.88529ZM112.696 3.6594C114.407 3.6594 115.691 4.96833 115.691 6.71358C115.691 8.45883 114.421 9.80999 112.779 9.80999C111.109 9.80999 109.77 8.44476 109.77 6.71358C109.77 5.02463 111.081 3.6594 112.696 3.6594Z" fill="white"/>
<path d="M125.015 10.5841V2.88529H123.994V6.19282H119.467V2.88529H118.446V10.5841H119.467V7.13582H123.994V10.5841H125.015Z" fill="white"/>
<path d="M134.435 2.88529H133.414V4.25053C132.655 3.16678 131.744 2.70232 130.433 2.70232C128.169 2.70232 126.458 4.44757 126.458 6.75581C126.458 9.06404 128.183 10.7671 130.515 10.7671C131.799 10.7671 132.613 10.3308 133.414 9.23293V10.5841H134.435V2.88529ZM130.419 3.6594C132.13 3.6594 133.414 4.96833 133.414 6.71358C133.414 8.45883 132.144 9.80999 130.502 9.80999C128.832 9.80999 127.493 8.44476 127.493 6.71358C127.493 5.02463 128.804 3.6594 130.419 3.6594Z" fill="white"/>
<path d="M143 10.5841L139.757 2.88529H138.611L135.368 10.5841H136.445L139.191 4.06756L141.924 10.5841H143Z" fill="white"/>
<path d="M13.4887 25.9043L14.303 25.4398L13.0057 23.0753L14.303 20.7248L13.4887 20.2745L11.9292 23.0753L13.4887 25.9043ZM15.8763 25.9043L16.6906 25.4398L15.3933 23.0753L16.6906 20.7248L15.8763 20.2745L14.2892 23.0753L15.8763 25.9043Z" fill="white"/>
<path d="M19.6274 26.3547L23.0915 18.0788L26.5555 26.3547H19.6274ZM28.6946 26.3547H27.6458L23.6711 16.8966H22.5118L18.5372 26.3547H17.4883V29.2118H18.206L18.5924 27.2977H27.5906L27.977 29.2118H28.6946V26.3547Z" fill="white"/>
<path d="M30.1535 30H31.2438L35.6049 19.5989H34.5146L31.9614 25.7354L29.5739 19.5989H28.456L31.3818 27.0443L30.1535 30Z" fill="white"/>
<path d="M35.8413 27.2977H37.0006L39.0431 24.2153L41.0719 27.2977H42.2449L39.609 23.3709L42.2449 19.5989H41.0719L39.0431 22.5686L37.0006 19.5989H35.8413L38.4635 23.3709L35.8413 27.2977Z" fill="white"/>
<path d="M46.7011 19.4159C44.3826 19.4159 42.6989 21.1189 42.6989 23.4553C42.6989 25.7635 44.424 27.4806 46.7287 27.4806C48.9507 27.4806 50.5792 25.7776 50.5792 23.4694C50.5792 21.1471 48.9231 19.4159 46.7011 19.4159ZM46.6183 20.373C48.3296 20.373 49.5441 21.6678 49.5441 23.4835C49.5441 25.2569 48.3572 26.5236 46.7011 26.5236C44.9898 26.5236 43.7339 25.2287 43.7339 23.4694C43.7339 21.696 44.9622 20.373 46.6183 20.373Z" fill="white"/>
<path d="M53.0533 23.7227H54.9992C56.1309 23.7227 57.0141 24.0183 57.0141 25.0035C57.0141 25.9887 56.1309 26.3547 54.9992 26.3547H53.0533V23.7227ZM57.6628 21.6256C57.6628 20.3308 56.6553 19.5989 55.0544 19.5989H52.032V27.2977H55.2614C56.9175 27.2977 58.0492 26.3125 58.0492 25.0035C58.0492 24.1872 57.6214 23.5257 56.6415 23.1597C57.0279 22.9909 57.6628 22.456 57.6628 21.6256ZM56.6829 21.6256C56.6829 22.4279 55.9377 22.7797 54.8888 22.7797H53.0533V20.5419H54.8888C55.9377 20.5419 56.6829 20.8234 56.6829 21.6256Z" fill="white"/>
<path d="M65.9869 27.2977V19.5989H64.9656V22.9064H60.4389V19.5989H59.4177V27.2977H60.4389V23.8494H64.9656V27.2977H65.9869Z" fill="white"/>
<path d="M68.741 23.6242H70.5627C71.8048 23.6242 72.3844 24.1027 72.3844 24.9894C72.3844 25.8761 71.8048 26.3547 70.5627 26.3547H68.741V23.6242ZM70.8249 22.6812H68.741V19.5989H67.7197V27.2977H70.8249C72.412 27.2977 73.4195 26.3125 73.4195 24.9894C73.4195 23.6664 72.412 22.6812 70.8249 22.6812ZM75.3516 19.5989H74.3304V27.2977H75.3516V19.5989Z" fill="white"/>
<path d="M78.301 16.798C78.508 18.0647 79.2947 18.6277 80.3988 18.6277C81.5028 18.6277 82.2895 18.0647 82.4965 16.798H81.4752C81.4752 17.6144 81.075 17.9803 80.3988 17.9803C79.7225 17.9803 79.3223 17.6144 79.3223 16.798H78.301ZM82.7035 19.5989L78.1078 25.8198V19.5989H77.0866V27.2977H78.1078L82.7035 21.0767V27.2977H83.7248V19.5989H82.7035Z" fill="white"/>
<path d="M89.2971 27.2977H90.3184V20.7389L93.0785 27.2977H93.9618L96.722 20.7389V27.2977H97.7432V19.5989H96.1561L93.5202 25.848L90.8842 19.5989H89.2971V27.2977Z" fill="white"/>
<path d="M107.173 19.5989H106.152V20.9641C105.393 19.8804 104.482 19.4159 103.171 19.4159C100.908 19.4159 99.1962 21.1612 99.1962 23.4694C99.1962 25.7776 100.921 27.4806 103.254 27.4806C104.537 27.4806 105.351 27.0443 106.152 25.9465V27.2977H107.173V19.5989ZM103.157 20.373C104.868 20.373 106.152 21.6819 106.152 23.4272C106.152 25.1724 104.882 26.5236 103.24 26.5236C101.57 26.5236 100.231 25.1583 100.231 23.4272C100.231 21.7382 101.542 20.373 103.157 20.373Z" fill="white"/>
<path d="M113.116 23.2442H111.363C110.121 23.2442 109.542 22.7657 109.542 21.893C109.542 21.0204 110.121 20.5419 111.363 20.5419H113.116V23.2442ZM111.446 24.1872H113.116V27.2977H114.137V19.5989H111.101C109.514 19.5989 108.507 20.5841 108.507 21.893C108.507 22.9768 109.197 23.8353 110.342 24.1027L108.162 27.2977H109.321L111.446 24.1872Z" fill="white"/>
<path d="M115.875 19.5989V27.2977H116.896V23.6664L120.332 27.2977H121.671L117.903 23.3286L121.671 19.5989H120.346L116.896 23.0331V19.5989H115.875Z" fill="white"/>
<path d="M125.498 25.9043L127.057 23.0753L125.498 20.2745L124.683 20.7248L125.981 23.0753L124.683 25.4398L125.498 25.9043ZM123.11 25.9043L124.697 23.0753L123.11 20.2745L122.296 20.7248L123.593 23.0753L122.296 25.4398L123.11 25.9043Z" fill="white"/>
</svg>
