<svg width="24" height="24" viewBox="0 0 24 24" fill="none" xmlns="http://www.w3.org/2000/svg">
<circle cx="12" cy="12" r="11" stroke="#5B509D" stroke-width="2"/>
<path d="M10.0321 17.6321V16.7521L11.2961 16.5281V11.0881L10.0001 10.8321V9.90406L12.8161 9.53606L13.4081 9.76006V16.5281L14.5281 16.7521V17.6321H10.0321ZM12.0321 8.65606C11.6801 8.65606 11.3867 8.53873 11.1521 8.30406C10.9174 8.05873 10.8001 7.7494 10.8001 7.37606C10.8001 7.01339 10.9334 6.6934 11.2001 6.41606C11.4667 6.13873 11.7867 6.00006 12.1601 6.00006C12.5121 6.00006 12.8054 6.10673 13.0401 6.32006C13.2854 6.53339 13.4081 6.84273 13.4081 7.24806C13.4081 7.62139 13.2801 7.95206 13.0241 8.24006C12.7787 8.51739 12.4481 8.65606 12.0321 8.65606Z" fill="#5B509D"/>
</svg>
