<svg width="24" height="24" viewBox="0 0 24 24" fill="none" xmlns="http://www.w3.org/2000/svg">
<circle cx="12" cy="12" r="11" stroke="white" stroke-width="2"/>
<path d="M10.0321 17.6321V16.7521L11.2961 16.5281V11.0881L10.0001 10.8321V9.90409L12.8161 9.53609L13.4081 9.76009V16.5281L14.5281 16.7521V17.6321H10.0321ZM12.0321 8.65609C11.6801 8.65609 11.3867 8.53876 11.1521 8.30409C10.9174 8.05876 10.8001 7.74943 10.8001 7.37609C10.8001 7.01343 10.9334 6.69343 11.2001 6.41609C11.4667 6.13876 11.7867 6.00009 12.1601 6.00009C12.5121 6.00009 12.8054 6.10676 13.0401 6.32009C13.2854 6.53343 13.4081 6.84276 13.4081 7.24809C13.4081 7.62143 13.2801 7.95209 13.0241 8.24009C12.7787 8.51743 12.4481 8.65609 12.0321 8.65609Z" fill="white"/>
</svg>
