<svg width="24" height="24" viewBox="0 0 24 24" fill="none" xmlns="http://www.w3.org/2000/svg">
<circle cx="12" cy="12" r="11" stroke="#FF0000" stroke-width="2"/>
<path d="M10.032 17.6321V16.7521L11.296 16.5281V11.0881L10 10.8321V9.90406L12.816 9.53606L13.408 9.76006V16.5281L14.528 16.7521V17.6321H10.032ZM12.032 8.65606C11.68 8.65606 11.3867 8.53873 11.152 8.30406C10.9173 8.05873 10.8 7.7494 10.8 7.37606C10.8 7.01339 10.9333 6.69339 11.2 6.41606C11.4667 6.13873 11.7867 6.00006 12.16 6.00006C12.512 6.00006 12.8053 6.10673 13.04 6.32006C13.2853 6.53339 13.408 6.84273 13.408 7.24806C13.408 7.62139 13.28 7.95206 13.024 8.24006C12.7787 8.51739 12.448 8.65606 12.032 8.65606Z" fill="#FF0000"/>
</svg>
