<svg width="24" height="24" viewBox="0 0 24 24" fill="none" xmlns="http://www.w3.org/2000/svg">
<circle cx="12" cy="12" r="11" stroke="#31BC00" stroke-width="2"/>
<path d="M10.0321 17.6321V16.7521L11.2961 16.5281V11.0881L10.0001 10.8321V9.90408L12.8161 9.53608L13.4081 9.76008V16.5281L14.5281 16.7521V17.6321H10.0321ZM12.0321 8.65608C11.6801 8.65608 11.3867 8.53874 11.1521 8.30408C10.9174 8.05874 10.8001 7.74941 10.8001 7.37608C10.8001 7.01341 10.9334 6.69341 11.2001 6.41608C11.4667 6.13874 11.7867 6.00008 12.1601 6.00008C12.5121 6.00008 12.8054 6.10674 13.0401 6.32008C13.2854 6.53341 13.4081 6.84274 13.4081 7.24808C13.4081 7.62141 13.2801 7.95208 13.0241 8.24008C12.7787 8.51741 12.4481 8.65608 12.0321 8.65608Z" fill="#31BC00"/>
</svg>
