<svg width="194" height="76" viewBox="0 0 194 76" fill="none" xmlns="http://www.w3.org/2000/svg">
<path d="M3.35058 58.5893C3.15505 58.1666 2.97164 57.7379 2.79885 57.3061C2.62454 56.8744 2.46235 56.4396 2.31078 56.0003C2.15769 55.5594 2.01672 55.1171 1.88788 54.6701C1.75753 54.2232 1.63779 53.7733 1.53017 53.3203C1.42255 52.8689 1.32554 52.4129 1.23914 51.9554C1.15426 51.4979 1.07999 51.0388 1.01633 50.5783C0.954185 50.1178 0.902649 49.6542 0.861724 49.1906C0.822315 48.727 0.793516 48.2635 0.775327 47.7984C0.758653 47.3333 0.752591 46.8682 0.757138 46.4031C0.763201 45.9365 0.779874 45.4714 0.808673 45.0079C0.837472 44.5428 0.876882 44.0792 0.928417 43.6172C0.978437 43.1536 1.0421 42.693 1.11485 42.2325C1.18913 41.7735 1.27401 41.316 1.37101 40.86C1.46651 40.404 1.57412 39.951 1.69387 39.5011C1.8121 39.0511 1.94094 38.6042 2.0819 38.1603C2.22286 37.7165 2.37444 37.2756 2.53662 36.8393C2.69881 36.403 2.8716 35.9697 3.05501 35.541C3.23841 35.1138 3.43243 34.6896 3.63705 34.2715C3.84168 33.8534 4.0554 33.4398 4.27973 33.0308C4.50558 32.6233 4.739 32.2203 4.98455 31.8234C5.22859 31.4264 5.48323 31.0356 5.74697 30.6523C6.0092 30.2675 6.28355 29.8903 6.56548 29.5191C6.8474 29.148 7.13843 28.7844 7.43855 28.4269C7.73866 28.0709 8.04788 27.7209 8.36467 27.38C8.68146 27.0377 9.00734 26.7044 9.34081 26.3787C9.67427 26.053 10.0153 25.7348 10.3655 25.4258C10.7141 25.1167 11.0703 24.8168 11.4341 24.5259C11.7993 24.2335 12.1692 23.9517 12.5481 23.6775C12.9255 23.4049 13.309 23.1397 13.7001 22.8852C14.0912 22.6307 14.4883 22.3868 14.8915 22.1505C15.2931 21.9157 15.7024 21.6899 16.1162 21.4748C16.53 21.2597 16.9483 21.0552 17.3727 20.8613C17.4879 20.8067 17.6107 20.778 17.738 20.7734C17.8654 20.7689 17.9881 20.7886 18.1079 20.8325C18.2276 20.8764 18.3337 20.9416 18.4277 21.0279C18.5217 21.1143 18.5944 21.2158 18.6475 21.3309C18.7005 21.4476 18.7309 21.5687 18.7354 21.696C18.7399 21.8233 18.7202 21.946 18.6748 22.0656C18.6308 22.1853 18.5656 22.2914 18.4792 22.3853C18.3913 22.4792 18.2898 22.5519 18.1746 22.605C4.85723 28.7223 -1.00871 44.5034 5.09975 57.7849C11.2067 71.0678 27.0083 76.8973 40.3257 70.78C40.4409 70.727 40.5637 70.6982 40.691 70.6921C40.8183 70.6876 40.9411 70.7073 41.0608 70.7512C41.1806 70.7951 41.2867 70.8603 41.3806 70.9466C41.4746 71.033 41.5474 71.1345 41.6004 71.2511C41.6535 71.3663 41.6823 71.4875 41.6883 71.6147C41.6929 71.742 41.6732 71.8647 41.6277 71.9844C41.5838 72.104 41.5186 72.2101 41.4322 72.304C41.3443 72.3979 41.2427 72.4707 41.1275 72.5252C40.7031 72.7191 40.2757 72.9039 39.8422 73.0766C39.4087 73.2509 38.9721 73.4145 38.531 73.566C38.0915 73.719 37.6458 73.8599 37.1987 73.9901C36.7516 74.1219 36.2999 74.2401 35.8467 74.3492C35.3934 74.4583 34.9372 74.5552 34.4779 74.6416C34.0202 74.7279 33.5594 74.8022 33.0986 74.8658C32.6363 74.9294 32.1725 74.9824 31.7087 75.0233C31.2433 75.0642 30.778 75.093 30.3127 75.1112C29.8458 75.1294 29.3805 75.1354 28.9136 75.1309C28.4483 75.1264 27.9815 75.1097 27.5161 75.0824C27.0508 75.0551 26.587 75.0158 26.1231 74.9658C25.6593 74.9158 25.197 74.8537 24.7362 74.7809C24.277 74.7082 23.8177 74.6234 23.3615 74.528C22.9052 74.4325 22.452 74.3265 22.0003 74.2083C21.5501 74.0901 21.103 73.9614 20.6574 73.822C20.2133 73.6826 19.7722 73.5326 19.3356 73.3705C18.8976 73.21 18.4656 73.0373 18.0366 72.8555C17.6077 72.6721 17.1833 72.4798 16.7649 72.2768C16.3451 72.0737 15.9313 71.8601 15.522 71.6359C15.1143 71.4132 14.7111 71.1799 14.314 70.936C13.9168 70.6921 13.5258 70.4391 13.1408 70.177C12.7573 69.915 12.3784 69.6423 12.007 69.362C11.6356 69.0802 11.2719 68.7909 10.9157 68.4909C10.558 68.1925 10.2093 67.8849 9.86677 67.5683C9.52573 67.2532 9.19075 66.929 8.86486 66.5957C8.54049 66.264 8.22219 65.9231 7.91297 65.5747C7.60376 65.2277 7.30364 64.8717 7.01262 64.5097C6.72008 64.1461 6.43815 63.7764 6.16532 63.3992C5.89097 63.0235 5.62723 62.6402 5.37258 62.2509C5.11794 61.86 4.8739 61.4646 4.63896 61.0632C4.40402 60.6617 4.17818 60.2542 3.96446 59.8421C3.74922 59.4286 3.54459 59.012 3.35058 58.5893Z" fill="white"/>
<path d="M55.6244 58.4056C55.4365 58.8313 55.2364 59.251 55.0272 59.6661C54.8166 60.0811 54.5968 60.4917 54.3679 60.8962C54.1375 61.3007 53.898 61.6991 53.6479 62.0915C53.3993 62.4854 53.1401 62.8717 52.8719 63.2519C52.602 63.6322 52.3247 64.0048 52.0382 64.3714C51.7517 64.7381 51.4546 65.0971 51.15 65.4486C50.8453 65.8 50.5331 66.1439 50.2117 66.4818C49.8889 66.8181 49.5599 67.1468 49.2219 67.4665C48.8839 67.7861 48.5383 68.0982 48.1852 68.4027C47.832 68.7057 47.4728 68.9996 47.1044 69.2859C46.7361 69.5707 46.3617 69.8479 45.9813 70.1146C45.5993 70.3827 45.2113 70.6403 44.8172 70.8887C44.4231 71.1372 44.0244 71.375 43.6182 71.6038C43.212 71.8325 42.8012 72.0507 42.3844 72.2597C41.9676 72.4688 41.5462 72.6673 41.1203 72.8551C40.6943 73.043 40.2624 73.2202 39.8273 73.3868C39.3923 73.5535 38.9543 73.7095 38.5117 73.855C38.0676 73.9989 37.6219 74.1337 37.1718 74.2564C36.7231 74.3806 36.2714 74.4928 35.8152 74.5942C35.3604 74.6942 34.9042 74.7851 34.4434 74.8639C33.9841 74.9427 33.5233 75.0093 33.061 75.0654C32.5972 75.1214 32.1334 75.1669 31.6681 75.2002C31.2027 75.2336 30.7374 75.2563 30.2721 75.2669C29.8052 75.2775 29.3399 75.276 28.873 75.2639C28.4062 75.2517 27.9409 75.2275 27.4755 75.1926C27.0117 75.1578 26.5464 75.1108 26.0841 75.0533C25.6218 74.9957 25.1595 74.926 24.7002 74.8457C24.2409 74.7654 23.7847 74.6745 23.3284 74.5715C22.8737 74.4685 22.422 74.3549 21.9718 74.2292C21.5232 74.1049 21.0776 73.9686 20.6334 73.8216C20.1908 73.6762 19.7528 73.5186 19.3178 73.349C18.8828 73.1808 18.4523 73.0021 18.0248 72.8127C17.9081 72.7612 17.8066 72.69 17.7187 72.5976C17.6308 72.5052 17.5641 72.3991 17.5171 72.2794C17.4716 72.1613 17.4504 72.0386 17.4534 71.9113C17.4564 71.784 17.4837 71.6613 17.5353 71.5447C17.5868 71.4295 17.6596 71.3265 17.752 71.2387C17.8445 71.1523 17.9506 71.0857 18.0688 71.0387C18.1885 70.9932 18.3113 70.972 18.4386 70.9766C18.5675 70.9796 18.6887 71.0069 18.8055 71.0584C32.1986 77.0075 47.926 70.9811 53.8662 57.6239C59.8064 44.2667 53.7434 28.5598 40.3503 22.6107C40.2336 22.5592 40.132 22.4864 40.0441 22.394C39.9562 22.3016 39.8895 22.1956 39.8425 22.0774C39.797 21.9577 39.7758 21.835 39.7788 21.7078C39.7819 21.5805 39.8092 21.4593 39.8607 21.3427C39.9122 21.226 39.985 21.1245 40.0774 21.0366C40.1699 20.9488 40.276 20.8821 40.3942 20.8367C40.514 20.7912 40.6367 20.77 40.7641 20.7731C40.8929 20.7761 41.0142 20.8049 41.1309 20.8564C41.5568 21.0457 41.9782 21.2457 42.395 21.4548C42.8118 21.6653 43.2226 21.885 43.6288 22.1153C44.0335 22.3456 44.4337 22.5849 44.8278 22.8349C45.2219 23.0848 45.6099 23.3439 45.9904 23.612C46.3723 23.8802 46.7467 24.1589 47.1135 24.4453C47.4819 24.7331 47.8411 25.0285 48.1943 25.333C48.5474 25.6375 48.893 25.9511 49.231 26.2723C49.569 26.5934 49.898 26.9237 50.2193 27.26C50.5406 27.5978 50.8544 27.9433 51.1591 28.2962C51.4622 28.6492 51.7593 29.0098 52.0458 29.3779C52.3322 29.7445 52.6096 30.1187 52.8779 30.5005C53.1462 30.8807 53.4054 31.2685 53.6555 31.6624C53.9041 32.0548 54.1436 32.4547 54.374 32.8607C54.6028 33.2652 54.8226 33.6758 55.0333 34.0924C55.2425 34.509 55.441 34.9301 55.6305 35.3558C55.82 35.7815 55.9973 36.2118 56.1656 36.6466C56.3338 37.0798 56.4899 37.5192 56.637 37.9615C56.7825 38.4039 56.9174 38.8493 57.0417 39.2977C57.166 39.7461 57.2796 40.1976 57.3812 40.6521C57.4843 41.1065 57.5737 41.5625 57.654 42.0216C57.7344 42.4806 57.8026 42.9411 57.8587 43.4032C57.9163 43.8652 57.9617 44.3288 57.9951 44.7924C58.0299 45.256 58.0527 45.721 58.0633 46.1861C58.0754 46.6527 58.0754 47.1178 58.0633 47.5829C58.0527 48.048 58.0284 48.5131 57.9951 48.9767C57.9602 49.4402 57.9147 49.9038 57.8571 50.3658C57.7995 50.8279 57.7313 51.2869 57.651 51.746C57.5722 52.205 57.4812 52.661 57.3782 53.1155C57.2766 53.5684 57.1629 54.0199 57.0386 54.4683C56.9143 54.9167 56.7779 55.3621 56.6324 55.803C56.4854 56.2453 56.3293 56.6831 56.161 57.1164C55.9928 57.5512 55.8139 57.9799 55.6244 58.4056Z" fill="white"/>
<path d="M28.7637 15.8553C26.8538 15.8553 25.3002 14.3025 25.3002 12.3937C25.3002 10.4848 26.8538 8.93204 28.7637 8.93204C30.6735 8.93204 32.2271 10.4848 32.2271 12.3937C32.2271 14.3025 30.6735 15.8553 28.7637 15.8553ZM28.7637 10.4091C27.6693 10.4091 26.778 11.2999 26.778 12.3937C26.778 13.4875 27.6693 14.3782 28.7637 14.3782C29.858 14.3782 30.7493 13.4875 30.7493 12.3937C30.7493 11.2999 29.858 10.4091 28.7637 10.4091Z" fill="white"/>
<path d="M14.8461 34.9783L27.4737 15.1811" stroke="white" stroke-width="1.50905" stroke-linecap="round"/>
<path d="M20.7365 32.8863L27.4649 15.4796" stroke="white" stroke-width="1.5082" stroke-linecap="round"/>
<path d="M37.0941 33.1618L29.9488 15.2644" stroke="white" stroke-width="1.50572" stroke-linecap="round"/>
<path d="M42.854 34.9721L31.16 15.2961" stroke="white" stroke-width="1.5026" stroke-linecap="round"/>
<path d="M15.4704 35.3269L20.4662 33.2438" stroke="white" stroke-width="1.50983" stroke-linecap="round"/>
<path d="M16.7665 48.3675L16.8392 35.1118" stroke="white" stroke-width="1.50162" stroke-linecap="round"/>
<path d="M21.4369 46.8057L21.4217 32.9622" stroke="white" stroke-width="1.50914" stroke-linecap="round"/>
<path d="M36.2302 46.8071L36.215 32.962" stroke="white" stroke-width="1.50914" stroke-linecap="round"/>
<path d="M40.3608 48.3613L40.3441 34.5178" stroke="white" stroke-width="1.50914" stroke-linecap="round"/>
<path d="M35.4634 33.3891H21.9218" stroke="white" stroke-width="1.51255" stroke-linecap="round"/>
<path d="M42.2492 35.3026L37.0047 32.956" stroke="white" stroke-width="1.49358" stroke-linecap="round"/>
<path d="M28.4607 73.1335V38.5095" stroke="white" stroke-width="1.5057" stroke-linecap="round"/>
<path d="M32.85 73.1366L32.7758 49.3475" stroke="white" stroke-width="1.50339" stroke-linecap="round"/>
<path d="M24.5423 73.1351L24.4681 49.3445" stroke="white" stroke-width="1.50339" stroke-linecap="round"/>
<path d="M8.71303 55.8877L28.3783 47.4904" stroke="white" stroke-width="1.50552" stroke-linecap="round"/>
<path d="M8.65077 59.1082L24.3539 54.9027" stroke="white" stroke-width="1.50961" stroke-linecap="round"/>
<path d="M8.4801 62.5019L23.8407 62.5413" stroke="white" stroke-width="1.50752" stroke-linecap="round"/>
<path d="M11.798 67.3329H23.8421" stroke="white" stroke-width="1.50809" stroke-linecap="round"/>
<path d="M8.47382 63.8168V53.5804" stroke="white" stroke-width="1.50672" stroke-linecap="round"/>
<path d="M6.28497 54.4803L28.0466 43.444" stroke="white" stroke-width="1.50357" stroke-linecap="round"/>
<path d="M50.3617 54.0698L29.0169 43.5743" stroke="white" stroke-width="1.50886" stroke-linecap="round"/>
<path d="M48.4545 56.556L29.0908 47.4831" stroke="white" stroke-width="1.5066" stroke-linecap="round"/>
<path d="M47.9909 58.9326L33.6383 55.4437" stroke="white" stroke-width="1.50044" stroke-linecap="round"/>
<path d="M48.1422 62.4851L33.3804 62.5048" stroke="white" stroke-width="1.50543" stroke-linecap="round"/>
<path d="M45.9612 67.3542H33.6079" stroke="white" stroke-width="1.50291" stroke-linecap="round"/>
<path d="M48.7045 64.9497V53.5195" stroke="white" stroke-width="1.51043" stroke-linecap="round"/>
<path d="M25.282 38.7112H23.742C23.742 37.2159 24.9561 36.0024 26.4537 36.0024C27.9497 36.0024 29.1638 37.2159 29.1638 38.7112H27.6269C27.6223 38.0673 27.0979 37.5477 26.4537 37.5477C25.808 37.5477 25.285 38.0673 25.282 38.7112Z" fill="white"/>
<path d="M29.2487 38.7324H27.7102C27.7102 37.2356 28.9243 36.0222 30.4204 36.0222C31.9179 36.0222 33.1305 37.2356 33.1305 38.7324H31.5935C31.5905 38.0885 31.0661 37.5674 30.4204 37.5674C29.7747 37.5674 29.2517 38.0885 29.2487 38.7324Z" fill="white"/>
<path d="M24.5362 44.7376V38.7369" stroke="white" stroke-width="1.51615" stroke-linecap="round"/>
<path d="M32.3209 44.7376V38.7369" stroke="white" stroke-width="1.51615" stroke-linecap="round"/>
<path d="M19.3842 47.7706L19.3766 40.5671" stroke="white" stroke-width="1.51628" stroke-linecap="round"/>
<path d="M38.0796 47.7706L38.072 40.5671" stroke="white" stroke-width="1.51628" stroke-linecap="round"/>
<path d="M17.2044 39.8943L19.1734 40.467" stroke="white" stroke-width="1.53446" stroke-linecap="round"/>
<path d="M38.3851 40.4438L40.0676 39.7803" stroke="white" stroke-width="1.50521" stroke-linecap="round"/>
<path d="M28.7482 9.11707V1.00002" stroke="white" stroke-width="1.51187" stroke-linecap="round"/>
<path d="M26.0322 2.87085L31.1767 2.83903" stroke="white" stroke-width="1.49359" stroke-linecap="round"/>
<path d="M26.8535 5.99628L30.7141 6.85676" stroke="white" stroke-width="1.48599" stroke-linecap="round"/>
<path d="M75.976 40.76C75.976 40.52 76.056 40.32 76.216 40.16C76.376 40 76.576 39.92 76.816 39.92H77.656C78.392 38.32 78.912 36.568 79.216 34.664C79.536 32.744 79.696 30.616 79.696 28.28C79.696 27.464 79.584 26.864 79.36 26.48C79.136 26.08 78.688 25.88 78.016 25.88H77.776V25.16H90.472V39.92H91.312C91.552 39.92 91.752 40 91.912 40.16C92.072 40.32 92.152 40.52 92.152 40.76V45.416H90.952C90.824 44.28 90.632 43.392 90.376 42.752C90.136 42.112 89.824 41.656 89.44 41.384C89.056 41.128 88.56 41 87.952 41H80.176C79.568 41 79.072 41.128 78.688 41.384C78.304 41.656 77.984 42.112 77.728 42.752C77.488 43.392 77.304 44.28 77.176 45.416H75.976V40.76ZM87.352 39.92V26.24H82.072C82.072 29.536 81.928 32.232 81.64 34.328C81.352 36.424 80.856 38.288 80.152 39.92H87.352ZM94.8721 44.96C95.7521 44.96 96.4641 44.792 97.0081 44.456C97.5521 44.12 97.9921 43.512 98.3281 42.632L98.8321 41.336L94.5121 31.88C93.9841 30.728 93.2401 30.088 92.2801 29.96V29.48H94.3921C95.0961 29.48 95.7201 29.656 96.2641 30.008C96.8081 30.344 97.2241 30.808 97.5121 31.4L100.272 37.448L103.2 29.72H104.472L99.6241 42.56C99.1761 43.808 98.6561 44.656 98.0641 45.104C97.4721 45.568 96.7281 45.8 95.8321 45.8H94.8721V44.96ZM109.483 35.984L107.179 32.12C106.843 31.56 106.483 31.12 106.099 30.8C105.715 30.464 105.331 30.264 104.947 30.2V29.72H107.227C107.963 29.72 108.563 29.88 109.027 30.2C109.491 30.52 109.915 31 110.299 31.64L111.451 33.584L114.595 29.72H116.203L112.147 34.712L114.475 38.6C114.811 39.16 115.171 39.608 115.555 39.944C115.939 40.264 116.323 40.456 116.707 40.52V41H114.427C113.691 41 113.091 40.84 112.627 40.52C112.163 40.2 111.739 39.72 111.355 39.08L110.179 37.136L107.035 41H105.427L109.483 35.984ZM122.89 41.24C121.722 41.24 120.698 40.984 119.818 40.472C118.954 39.944 118.29 39.24 117.826 38.36C117.362 37.464 117.13 36.464 117.13 35.36C117.13 34.256 117.362 33.264 117.826 32.384C118.29 31.488 118.954 30.784 119.818 30.272C120.698 29.744 121.722 29.48 122.89 29.48C124.058 29.48 125.074 29.744 125.938 30.272C126.818 30.784 127.49 31.488 127.954 32.384C128.418 33.264 128.65 34.256 128.65 35.36C128.65 36.464 128.418 37.464 127.954 38.36C127.49 39.24 126.818 39.944 125.938 40.472C125.074 40.984 124.058 41.24 122.89 41.24ZM122.89 40.16C123.706 40.16 124.33 39.72 124.762 38.84C125.194 37.96 125.41 36.8 125.41 35.36C125.41 33.92 125.194 32.76 124.762 31.88C124.33 31 123.706 30.56 122.89 30.56C122.074 30.56 121.45 31 121.018 31.88C120.586 32.76 120.37 33.92 120.37 35.36C120.37 36.8 120.586 37.96 121.018 38.84C121.45 39.72 122.074 40.16 122.89 40.16ZM131.284 32.84C131.284 32.024 131.172 31.424 130.948 31.04C130.724 30.64 130.276 30.44 129.604 30.44H129.484V29.72H135.916C137.404 29.72 138.58 29.968 139.444 30.464C140.324 30.96 140.764 31.672 140.764 32.6C140.764 33.304 140.5 33.872 139.972 34.304C139.444 34.72 138.692 34.992 137.716 35.12C138.788 35.264 139.644 35.576 140.284 36.056C140.924 36.52 141.244 37.128 141.244 37.88C141.244 39.96 139.468 41 135.916 41H131.284V32.84ZM135.244 34.52C135.884 34.52 136.42 34.352 136.852 34.016C137.3 33.664 137.524 33.192 137.524 32.6C137.524 31.976 137.316 31.504 136.9 31.184C136.5 30.848 136.028 30.68 135.484 30.68C135.1 30.68 134.74 30.736 134.404 30.848V34.52H135.244ZM135.484 40.04C136.236 40.04 136.844 39.856 137.308 39.488C137.772 39.104 138.004 38.568 138.004 37.88C138.004 37.128 137.756 36.56 137.26 36.176C136.78 35.792 136.108 35.6 135.244 35.6H134.404V39.872C134.74 39.984 135.1 40.04 135.484 40.04ZM143.99 32.84C143.99 32.024 143.878 31.424 143.654 31.04C143.43 30.64 142.982 30.44 142.31 30.44H142.07V29.72H144.95C145.526 29.72 145.966 29.816 146.27 30.008C146.574 30.2 146.79 30.52 146.918 30.968C147.046 31.4 147.11 32.024 147.11 32.84V34.76H150.95V29.72H154.07V37.88C154.07 38.696 154.182 39.304 154.406 39.704C154.63 40.088 155.078 40.28 155.75 40.28H155.99V41H153.11C152.534 41 152.094 40.912 151.79 40.736C151.486 40.544 151.27 40.232 151.142 39.8C151.014 39.352 150.95 38.712 150.95 37.88V35.84H147.11V41H143.99V32.84ZM157.865 32.84C157.865 32.024 157.753 31.424 157.529 31.04C157.305 30.64 156.857 30.44 156.185 30.44H155.945V29.72H158.825C159.401 29.72 159.841 29.816 160.145 30.008C160.449 30.2 160.665 30.52 160.793 30.968C160.921 31.4 160.985 32.024 160.985 32.84V34.28H162.545C164.065 34.28 165.265 34.576 166.145 35.168C167.025 35.744 167.465 36.568 167.465 37.64C167.465 38.712 167.025 39.544 166.145 40.136C165.265 40.712 164.065 41 162.545 41H157.865V32.84ZM170.825 41C170.249 41 169.809 40.912 169.505 40.736C169.201 40.544 168.985 40.232 168.857 39.8C168.729 39.352 168.665 38.712 168.665 37.88V29.72H171.785V37.88C171.785 38.696 171.897 39.304 172.121 39.704C172.345 40.088 172.793 40.28 173.465 40.28H173.705V41H170.825ZM162.065 40.04C162.673 40.04 163.185 39.856 163.601 39.488C164.017 39.104 164.225 38.488 164.225 37.64C164.225 36.792 164.017 36.184 163.601 35.816C163.185 35.432 162.673 35.24 162.065 35.24C161.681 35.24 161.321 35.296 160.985 35.408V39.872C161.321 39.984 161.681 40.04 162.065 40.04ZM175.584 32.84C175.584 32.024 175.472 31.424 175.248 31.04C175.024 30.64 174.576 30.44 173.904 30.44H173.663V29.72H176.544C177.12 29.72 177.56 29.816 177.864 30.008C178.168 30.2 178.384 30.52 178.512 30.968C178.64 31.4 178.704 32.024 178.704 32.84V38L183.024 29.72H185.904V41H182.784V32.72L178.464 41H175.584V32.84ZM180.528 28.76C179.76 28.76 179.08 28.56 178.488 28.16C177.896 27.744 177.448 27.192 177.144 26.504L177.816 26C178.088 26.336 178.448 26.624 178.896 26.864C179.36 27.088 179.904 27.2 180.528 27.2C181.152 27.2 181.688 27.088 182.136 26.864C182.6 26.624 182.968 26.336 183.24 26L183.912 26.504C183.608 27.192 183.16 27.744 182.568 28.16C181.976 28.56 181.296 28.76 180.528 28.76ZM91.936 65.6C90.224 65.6 88.984 65.224 88.216 64.472C87.448 63.704 87.064 62.52 87.064 60.92V56.744L83.608 65H82.816L78.64 56.504V64.976H77.44V53.72H80.368L83.92 60.944L87.04 53.48H90.184V60.92C90.184 62.28 90.312 63.272 90.568 63.896C90.824 64.52 91.28 64.888 91.936 65V65.6ZM96.7604 65.24C95.4644 65.24 94.4564 64.952 93.7364 64.376C93.0324 63.784 92.6804 62.992 92.6804 62C92.6804 61.2 92.8644 60.536 93.2324 60.008C93.6164 59.48 94.2804 59.08 95.2244 58.808C96.1684 58.536 97.4804 58.4 99.1604 58.4H99.5204C99.5204 57.008 99.3284 56.024 98.9444 55.448C98.5604 54.856 97.9924 54.56 97.2404 54.56C96.6164 54.56 96.1044 54.712 95.7044 55.016C95.3044 55.32 95.0164 55.888 94.8404 56.72H93.5204C93.5204 56.176 93.5524 55.712 93.6164 55.328C93.6964 54.944 93.8644 54.608 94.1204 54.32C94.6164 53.76 95.8164 53.48 97.7204 53.48C99.3204 53.48 100.536 53.904 101.368 54.752C102.216 55.584 102.64 56.84 102.64 58.52V65H100.6L99.7604 63.92H99.6404C99.4964 64.144 99.2724 64.368 98.9684 64.592C98.4244 65.024 97.6884 65.24 96.7604 65.24ZM97.4804 64.04C97.8164 64.04 98.1044 63.976 98.3444 63.848C98.5844 63.704 98.8164 63.512 99.0404 63.272C99.2484 63.048 99.4084 62.784 99.5204 62.48V59.48H99.1604C98.0244 59.48 97.2004 59.688 96.6884 60.104C96.1764 60.504 95.9204 61.136 95.9204 62C95.9204 62.656 96.0564 63.16 96.3284 63.512C96.6004 63.864 96.9844 64.04 97.4804 64.04ZM105.811 65.36C105.251 65.36 104.731 65.28 104.251 65.12V64.496C104.987 64.4 105.667 63.808 106.291 62.72L107.731 60.224C106.883 60.096 106.211 59.76 105.715 59.216C105.219 58.656 104.971 57.984 104.971 57.2C104.971 56 105.435 55.12 106.363 54.56C107.307 54 108.603 53.72 110.251 53.72H116.491V54.44H116.371C115.699 54.44 115.251 54.64 115.027 55.04C114.803 55.424 114.691 56.024 114.691 56.84V65H111.571V60.344H110.515L109.075 63.2C108.707 63.952 108.275 64.504 107.779 64.856C107.299 65.192 106.643 65.36 105.811 65.36ZM110.491 59.36C110.779 59.36 111.027 59.336 111.235 59.288C111.443 59.224 111.555 59.192 111.571 59.192V54.848C111.555 54.848 111.443 54.824 111.235 54.776C111.027 54.712 110.779 54.68 110.491 54.68C109.819 54.68 109.267 54.864 108.835 55.232C108.419 55.584 108.211 56.16 108.211 56.96C108.211 57.76 108.427 58.36 108.859 58.76C109.291 59.16 109.835 59.36 110.491 59.36ZM127.466 65.24C126.762 65.24 126.114 65.096 125.522 64.808C124.946 64.504 124.402 64.008 123.89 63.32L121.586 60.296V65H118.466V56.84C118.466 56.024 118.354 55.424 118.13 55.04C117.906 54.64 117.458 54.44 116.786 54.44H116.546V53.72H119.426C120.002 53.72 120.442 53.816 120.746 54.008C121.05 54.2 121.266 54.52 121.394 54.968C121.522 55.4 121.586 56.024 121.586 56.84V59.12L124.49 55.568C125.034 54.912 125.546 54.44 126.026 54.152C126.506 53.864 127.146 53.72 127.946 53.72H128.426V54.344C127.946 54.344 127.514 54.44 127.13 54.632C126.746 54.824 126.378 55.128 126.026 55.544L123.698 58.376L126.89 62.6C127.658 63.64 128.402 64.248 129.122 64.424V65C128.994 65.064 128.762 65.12 128.426 65.168C128.09 65.216 127.77 65.24 127.466 65.24Z" fill="white"/>
</svg>
