<svg width="32" height="32" viewBox="0 0 32 32" fill="none" xmlns="http://www.w3.org/2000/svg">
<path d="M8 3H24C27.866 3 31 6.13401 31 10V22C31 25.866 27.866 29 24 29H8C4.13401 29 1 25.866 1 22V10C1 6.13401 4.13401 3 8 3Z" stroke="white" stroke-width="2"/>
<path d="M7.00004 9C7.00004 9 6.43861 14.4298 10 18.5C13.5 22.5 16.0323 23.5 16.0323 23.5V18.5M16.0323 9V18.5M16.0323 18.5C16.0323 18.5 18.9505 18.0621 20.5 16.5M25.0323 9C25.0323 9 24 14.5 20.5 16.5M20.5 16.5C22.4652 20.4052 25.0323 24.5 25.0323 24.5" stroke="white" stroke-width="2"/>
</svg>
