<svg width="22" height="20" viewBox="0 0 22 20" fill="none" xmlns="http://www.w3.org/2000/svg">
<path d="M17.11 17.4145V12.0614C18.3088 12.3576 19.2007 13.4451 19.2007 14.7376C19.2007 16.0307 18.3088 17.1182 17.11 17.4145ZM15.795 18.1714H13.9975V11.3045H15.795V18.1714ZM4.84879 12.0614V17.4145C3.65004 17.1182 2.75816 16.0307 2.75816 14.7376C2.75816 13.4451 3.65004 12.3576 4.84879 12.0614ZM6.16379 11.3045H7.96129V18.1714H6.16379V11.3045ZM21.0594 10.6445C21.0594 7.94323 20.0107 5.40386 18.1069 3.49386C16.2032 1.58386 13.6719 0.531982 10.9794 0.531982C8.28691 0.531982 5.75566 1.58386 3.85191 3.49386C1.94816 5.40386 0.899414 7.94323 0.899414 10.6445C0.899414 11.8257 1.10066 12.9801 1.49691 14.0801C1.46191 14.2945 1.44316 14.5139 1.44316 14.7376C1.44316 16.7607 2.92004 18.4439 4.84879 18.7601V19.4907H9.27566V9.98511H4.84879V10.7157C3.84379 10.8801 2.96191 11.4164 2.34691 12.1782C2.25879 11.6751 2.21441 11.1626 2.21441 10.6445C2.21441 5.79573 6.14629 1.85136 10.9794 1.85136C15.8125 1.85136 19.7444 5.79573 19.7444 10.6445C19.7444 11.1626 19.6994 11.6751 19.6119 12.1782C18.9969 11.4164 18.115 10.8801 17.11 10.7157V9.98511H12.6825V19.4907H17.11V18.7601C19.0388 18.4439 20.5157 16.7607 20.5157 14.7376C20.5157 14.5139 20.4969 14.2945 20.4625 14.0801C20.8582 12.9801 21.0594 11.8257 21.0594 10.6445Z" fill="white"/>
</svg>
