<svg width="24" height="24" viewBox="0 0 24 24" fill="none" xmlns="http://www.w3.org/2000/svg">
<path d="M5.2131 20.2651H18.7731V7.77193L14.6987 3.6988H5.2131V20.2651ZM19.5275 21.7726H4.45997C4.04435 21.7726 3.70685 21.4351 3.70685 21.0194V2.94443C3.70685 2.5288 4.04435 2.19193 4.45997 2.19193H15.0081C15.2081 2.19005 15.3994 2.26818 15.5419 2.41068L20.0612 6.9288C20.2025 7.0713 20.2825 7.26443 20.2806 7.46443V21.0194C20.2806 21.4351 19.9431 21.7726 19.5275 21.7726Z" fill="white"/>
<path d="M15.7613 6.71011H17.7125L15.7613 4.75949V6.71011ZM19.5275 8.21699H15.0082C14.5907 8.21699 14.2538 7.87949 14.2538 7.46449V2.94449C14.255 2.64011 14.4394 2.36761 14.7213 2.25261C15.0013 2.13449 15.3244 2.19699 15.5419 2.41074L20.0613 6.92886C20.2757 7.14636 20.3382 7.46949 20.22 7.74949C20.105 8.03074 19.8319 8.21511 19.5275 8.21699Z" fill="white"/>
<path d="M19.5275 18.007H4.45997C4.04435 18.007 3.70685 17.6701 3.70685 17.2526C3.70685 16.8376 4.04435 16.502 4.45997 16.502H19.5275C19.9431 16.502 20.2806 16.8376 20.2806 17.2526C20.2806 17.6701 19.9431 18.007 19.5275 18.007Z" fill="white"/>
<path d="M11.9931 10.4751H7.47377C7.05814 10.4751 6.72064 10.1376 6.72064 9.72261C6.72064 9.30698 7.05814 8.96948 7.47377 8.96948H11.9931C12.41 8.96948 12.7475 9.30698 12.7475 9.72261C12.7475 10.1376 12.41 10.4751 11.9931 10.4751Z" fill="white"/>
<path d="M15.7613 13.4894H7.47377C7.05814 13.4894 6.72064 13.1519 6.72064 12.7351C6.72064 12.3194 7.05814 11.9819 7.47377 11.9819H15.7613C16.1769 11.9819 16.5144 12.3194 16.5144 12.7351C16.5144 13.1519 16.1769 13.4894 15.7613 13.4894Z" fill="white"/>
</svg>
