<svg width="22" height="14" viewBox="0 0 22 14" fill="none" xmlns="http://www.w3.org/2000/svg">
<path d="M20.7331 2.02552C20.5344 1.91489 20.2894 1.92114 20.0938 2.04239L16.0188 4.58989V2.57677C16.0188 1.19052 14.8888 0.686768 14.1288 0.686768H2.79001C1.40376 0.686768 0.900635 1.81739 0.900635 2.57677V11.3968C0.900635 12.7836 2.03063 13.2868 2.79001 13.2868H14.1288C15.5156 13.2868 16.0188 12.1568 16.0188 11.3968V9.38364L20.0944 11.9311C20.1963 11.9949 20.3119 12.0268 20.4281 12.0268C20.5338 12.0268 20.6388 12.0005 20.7331 11.948C20.9344 11.8368 21.0581 11.6255 21.0581 11.3968V2.57677C21.0581 2.34739 20.9344 2.13739 20.7331 2.02552ZM2.79001 1.94677H8.45938V2.57677C8.45938 2.92489 8.74188 3.20677 9.08939 3.20677C9.43751 3.20677 9.71938 2.92489 9.71938 2.57677V1.94677H14.1213C14.4125 1.95427 14.7588 2.06989 14.7588 2.57677V9.50677H2.16063V2.58427C2.16813 2.29364 2.28313 1.94677 2.79001 1.94677ZM14.1288 12.0268H2.79813C2.50688 12.0193 2.16063 11.9049 2.16063 11.3968V10.7668H14.7588V11.3893C14.7513 11.6805 14.6369 12.0268 14.1288 12.0268ZM19.7981 10.2599L16.0188 7.89802V6.07677L19.7981 3.71427V10.2599Z" fill="white"/>
</svg>
